# xmcd
#
# Track frame offsets: 
#        182
#        14167
#        27855
#        43265
#        57847
#        70252
#        80782
#        90690
#        103712
#        113605
#        127595
#        141720
#        154130
#        165610
#        177965
#        189180
#        201172
#        211510
#
# Disc length: 2976 seconds
#
# Revision: 3
# Processed by: cddbd v1.5.2PL0 Copyright (c) Steve Scherf et al.
# Submitted via: ExactAudioCopyFreeDBPlugin 1.0
#
DISCID=f70b9e12
DTITLE=Various Artist - Country Classics - 18 Country Hits
DYEAR=1994
DGENRE=Country
TTITLE0=Lynn Anderson - Rose Garden
TTITLE1=Jimmy Dean - Big Bad John
TTITLE2=Melba Montgomery - No Charge
TTITLE3=Jeannie C Riley - Harper Valley PTA
TTITLE4=Faron Young - It's Four In The Morning
TTITLE5=George Hamilton IV - Abilene
TTITLE6=Hank Locklin - Please Help Me, I'm Falling
TTITLE7=Claude King - Wolverton Mountain
TTITLE8=Ned Miller - From A Jack To A King
TTITLE9=Jeannie Seely - One Day At A Time
TTITLE10=Billie Jo Spears - Mr Walker, It's All Over
TTITLE11=Porter Wagoner - A Satisfied Mind
TTITLE12=Kitty Wells - It Wasn't God Who Made Honky Tonk Angels
TTITLE13=Johnny Paycheck - Take This Job And Shove It
TTITLE14=Stonewall Jackson - Waterloo
TTITLE15=Wilma Burgess - Misty Blue
TTITLE16=Johnny Darrell - Ruby, Don't Take Your Love To Town
TTITLE17=Skeeter Davis - The End Of The World
EXTD=K-Tel
EXTT0=
EXTT1=
EXTT2=
EXTT3=
EXTT4=
EXTT5=
EXTT6=
EXTT7=
EXTT8=
EXTT9=
EXTT10=
EXTT11=
EXTT12=
EXTT13=
EXTT14=
EXTT15=
EXTT16=
EXTT17=
PLAYORDER=
